<svg width="304" height="51" viewBox="0 0 304 51" fill="none" xmlns="http://www.w3.org/2000/svg">
<g clip-path="url(#clip0_1_6754)">
<path d="M18.6874 20.6962H14.0411V29.9863H9.39355V20.6934V2.11035H0.101562V20.6934V29.9863V39.2773V39.2803H9.39355V39.2773H14.0411V39.2803H18.6874V39.2773H27.9805V29.9863H18.6874V20.6962Z" fill="#1A0C6D"/>
<path d="M32.627 2.11035H27.9814V11.4023H32.627V2.11035Z" fill="#1A0C6D"/>
<path d="M23.334 2.11035H18.6875V2.11133H14.2295V6.75684H18.6875V20.6934H23.334V20.6915H27.9805V11.3994H23.334V2.11035Z" fill="#1A0C6D"/>
</g>
<path d="M301.146 38.6444L292.55 39.7727V35.2596H292.282C291.046 37.9997 288.628 39.7189 285.243 39.7189C278.957 39.7189 274.391 34.0777 274.391 26.932C274.391 17.5299 281.053 13.2317 286.694 13.2317C289.327 13.2317 291.476 13.9302 292.55 14.951V6.6771C292.55 4.6355 291.744 3.8296 289.971 3.8296C289.649 3.8296 289.165 3.88332 288.252 3.99078L286.64 4.15196V2.64761C289.219 2.16407 294.269 0.982089 295.828 0.444824H297.117V34.1314C297.117 36.4953 298.46 37.1401 299.964 37.1401C300.341 37.1401 300.502 37.1401 301.146 37.0863V38.6444ZM287.124 35.4745C289.649 35.4745 291.422 34.6686 292.55 33.0031V21.3445C292.55 17.906 290.723 15.542 286.909 15.542C282.987 15.542 278.742 18.4432 278.742 25.3202C278.742 30.9078 281.912 35.4745 287.124 35.4745Z" fill="#1A0C6D"/>
<path d="M269.954 34.1304C269.954 36.4944 271.297 37.1391 272.802 37.1391C273.178 37.1391 273.339 37.1391 273.984 37.0854V38.6435L265.387 39.7717V35.205H265.119C263.776 37.569 260.928 39.718 257.758 39.718C253.46 39.718 250.398 36.7631 250.398 31.9814V18.6035C250.398 16.2932 249.377 15.6485 247.604 15.5948L246.207 15.5411V13.9293H248.732C250.989 13.9293 253.568 13.8218 255.018 13.7144C254.964 14.4128 254.964 15.7022 254.964 18.5497V30.9069C254.964 34.6677 257.114 36.1183 259.854 36.1183C261.68 36.1183 263.991 34.9901 265.387 33.1096V18.4423C265.387 16.2395 264.098 15.6485 262.647 15.5948L260.928 15.5411V13.9293H264.152C265.71 13.9293 268.235 13.8218 269.954 13.7144V34.1304Z" fill="#1A0C6D"/>
<path d="M233.553 40.0425C226.73 40.0425 220.82 34.3475 220.82 26.6108C220.82 18.8205 226.73 13.1792 233.553 13.1792C240.377 13.1792 246.287 18.8205 246.287 26.6108C246.287 34.3475 240.377 40.0425 233.553 40.0425ZM233.553 37.5711C238.174 37.5711 240.968 33.058 240.968 26.6108C240.968 19.9487 238.067 15.6506 233.553 15.6506C228.879 15.6506 226.139 20.1637 226.139 26.6108C226.139 33.2192 229.04 37.5711 233.553 37.5711Z" fill="#1A0C6D"/>
<path d="M206.792 37.6773H207.437C210.123 37.6773 210.929 36.6028 210.929 34.3463V6.6771C210.929 4.58177 210.07 3.8296 208.189 3.8296C207.544 3.8296 206.792 3.93705 205.718 4.09823V2.59389C208.189 2.16407 212.756 0.982089 214.207 0.444824H215.496V34.3463C215.496 36.6028 216.248 37.6773 218.827 37.6773H219.633V39.2891H206.792V37.6773Z" fill="#1A0C6D"/>
<path d="M189.964 39.9873C180.239 39.9873 173.255 32.1432 173.255 21.5054C173.255 9.84672 181.582 1.3042 192.328 1.3042C197.969 1.3042 201.999 2.59364 204.309 3.99053V14.1986H202.428C202.375 8.23493 198.721 3.99053 192.059 3.99053C184.161 3.99053 178.09 9.90045 178.09 19.4101C178.09 28.7047 184.108 34.8833 191.683 34.8833C197.647 34.8833 201.408 31.3373 202.858 26.7706H204.685C203.664 33.0029 198.99 39.9873 189.964 39.9873Z" fill="#1A0C6D"/>
<path d="M144.23 37.6775H144.821C147.561 37.6775 148.367 36.603 148.367 34.4002V19.9477C148.367 17.6912 147.507 16.939 145.358 16.939H143.8V15.4884C145.788 15.0586 150.032 13.9841 151.698 13.4468H152.933V17.4763H153.202C154.921 15.0049 157.661 13.3394 160.992 13.3394C165.667 13.3394 168.245 16.2406 168.245 20.8073V34.239C168.245 36.4418 168.729 37.6775 171.308 37.6775H172.06V39.2893H160.079V37.6775H160.831C163.356 37.6775 163.679 36.4418 163.679 34.4002V22.4729C163.679 18.5508 161.744 16.8316 158.736 16.8316C156.64 16.8316 154.276 17.8524 152.933 19.6254V34.4002C152.933 36.6567 153.578 37.6775 156.049 37.6775H156.855V39.2893H144.23V37.6775Z" fill="#1A0C6D"/>
<path d="M124.943 23.5484C124.889 24.0857 124.889 24.5692 124.889 25.1065C124.943 30.8552 128.274 35.3683 133.646 35.3683C137.353 35.3683 139.664 32.9506 140.47 30.1031H141.974C141.49 34.0251 138.697 40.0425 132.088 40.0425C125.695 40.0425 121.021 34.6698 121.021 27.0407C121.021 18.9279 126.017 13.1792 132.625 13.1792C138.374 13.1792 142.028 17.2624 142.028 23.5484H124.943ZM131.873 15.4357C128.488 15.4357 125.856 18.1758 125.265 21.4531H137.676C137.568 18.8742 135.903 15.4357 131.873 15.4357Z" fill="#1A0C6D"/>
<path d="M92.7142 8.12459C90.7263 8.12459 89.4368 6.78143 89.4368 4.84727C89.4368 2.75194 91.2098 1.14014 93.1977 1.14014C95.1856 1.14014 96.4213 2.4833 96.4213 4.41746C96.4213 6.51279 94.702 8.12459 92.7142 8.12459ZM85.2462 39.9844C83.1508 39.9844 82.13 38.5876 82.13 36.7608C82.13 36.0624 82.3449 35.2028 82.6673 34.2357L87.5564 20.2131C87.7713 19.5146 87.8788 19.1385 87.8788 18.8162C87.8788 18.1715 87.5027 17.7416 86.8042 17.7416C85.7834 17.7416 84.6014 18.9236 82.721 21.3951L81.6465 20.6966C83.2583 18.064 86.6431 13.1749 89.8129 13.1749C91.6933 13.1749 92.6067 14.3031 92.6067 15.8075C92.6067 16.2373 92.4455 16.882 92.2306 17.5805L87.1803 33.1612C87.0729 33.5373 86.9654 33.9671 86.9654 34.2357C86.9654 35.0416 87.449 35.5251 88.1474 35.5251C89.7592 35.5251 91.6396 33.6447 92.9828 31.0658L94.1648 31.7643C92.0157 36.0624 88.7384 39.9844 85.2462 39.9844Z" fill="#1A0C6D"/>
<path d="M118.06 17.6365C116.61 17.6365 115.428 17.0455 114.514 16.1859L114.246 16.4545C115.75 18.1201 116.61 20.2154 116.61 22.3645C116.61 27.361 112.58 31.5517 106.724 31.5517H104.091C102.157 31.5517 100.331 32.1427 100.331 33.5933C100.331 34.6678 101.298 35.2588 102.856 35.3663L111.559 36.0647C116.61 36.4945 119.027 38.9122 119.027 42.3507C119.027 47.7234 113.816 50.6246 106.724 50.6246C99.6322 50.6246 95.0654 48.1532 95.0654 44.1774C95.0654 41.8672 96.9996 39.933 99.9545 39.4495C98.0741 38.9122 96.4086 37.5691 96.4086 35.3126C96.4086 32.1427 99.8471 30.7458 102.48 30.5309C99.0949 29.4564 96.8384 25.9104 96.8384 22.3645C96.8384 17.4753 100.922 13.2847 106.724 13.2847C108.175 13.2847 109.196 13.4996 110.27 13.7682C111.345 13.9831 112.473 14.2517 114.192 14.2517H120.371V17.6365H118.06ZM106.724 29.2952C108.981 29.2952 111.936 27.6834 111.936 22.3645C111.936 17.0455 108.981 15.5412 106.724 15.5412C104.521 15.5412 101.513 17.0455 101.513 22.3645C101.513 27.6834 104.468 29.2952 106.724 29.2952ZM115.159 43.8014C115.159 42.1358 114.031 40.9001 111.13 40.6315L101.62 39.7719C100.008 40.2554 98.7188 41.4374 98.7188 43.4253C98.7188 46.3802 101.835 48.3144 107.1 48.3144C112.043 48.3144 115.159 46.5414 115.159 43.8014Z" fill="#1A0C6D"/>
<path d="M79.1914 29.1885L76.72 39.2891H48.8896V37.6773H49.803C53.5101 37.6773 53.9399 36.0118 53.9399 33.4867V7.91282C53.9399 5.38767 53.5101 3.72215 49.803 3.72215H48.8896V2.11035H78.0094V11.5662H76.129C76.0753 8.82617 75.3768 7.10692 74.0874 6.08612C72.7442 5.06531 70.8101 4.68923 68.2312 4.68923H59.1514V19.4103H66.6194C70.5952 19.4103 71.9921 18.3358 72.0458 14.2526H73.8188V27.0932H72.0458C71.9383 23.2249 70.4877 21.9892 66.6194 21.9892H59.1514V33.4329C59.1514 35.4745 60.1185 36.4416 62.1064 36.4416H67.479C72.798 36.4416 75.1619 34.4 77.2035 29.1885H79.1914Z" fill="#1A0C6D"/>
<defs>
<clipPath id="clip0_1_6754">
<rect width="32.5254" height="37.1699" fill="white" transform="translate(0.101562 2.11035)"/>
</clipPath>
</defs>
</svg>
