<svg width="601" height="158" viewBox="0 0 601 158" fill="none" xmlns="http://www.w3.org/2000/svg">
<rect y="3" width="38" height="37" fill="black"/>
<rect x="38" y="40" width="37" height="118" fill="black"/>
<circle cx="179.318" cy="79" r="62.0714" stroke="black" stroke-width="33.8571"/>
<mask id="path-4-outside-1_203_39" maskUnits="userSpaceOnUse" x="277.127" y="10.5078" width="322" height="145" fill="black">
<rect fill="white" x="277.127" y="10.5078" width="322" height="145"/>
<path d="M284.397 78.5078L282.792 76.8083V14.1158L284.397 12.4163H290.44L292.139 14.1158V76.8083L290.44 78.5078H284.397ZM305.051 78.5078L303.446 76.8083V14.1158L305.145 12.4163H317.23L318.93 13.7381L329.41 69.1606H334.036V14.1158L335.642 12.5107H341.779L343.384 14.1158V76.8083L341.684 78.5078H323.084V78.319L321.385 77.0916L312.793 32.0549V76.8083L311.188 78.5078H305.051ZM356.316 78.5078L354.711 76.8083V14.1158L356.41 12.4163H368.496L370.195 13.7381L380.675 69.1606H385.302V14.1158L386.907 12.5107H393.044L394.649 14.1158V76.8083L392.949 78.5078H374.349V78.319L372.65 77.0916L364.058 32.0549V76.8083L362.453 78.5078H356.316ZM435.245 78.5078C417.023 78.5078 402.199 63.6844 402.199 45.4621C402.199 27.2397 417.023 12.4163 435.245 12.4163C453.467 12.4163 468.291 27.2397 468.291 45.4621C468.291 46.5006 468.291 47.5392 468.196 48.5778L466.497 50.0885H412.113C414.19 61.0408 423.915 69.0662 435.245 69.0662C443.837 69.0662 451.768 64.4398 455.922 56.8864L457.433 56.0367H464.136L465.647 58.3971C460.454 70.5768 448.558 78.5078 435.245 78.5078ZM412.113 40.6468H458.377C456.205 29.7889 446.575 21.8579 435.245 21.8579C424.009 21.8579 414.379 29.7889 412.113 40.6468ZM477.471 78.5078L475.866 76.8083V14.1158L477.471 12.4163H489.84C503.719 12.4163 515.049 23.7463 515.049 37.6255C515.049 47.3504 509.384 56.2255 500.603 60.3799L510.611 70.2936V72.654L506.268 76.9971H503.908L489.745 62.7403H485.213V76.8083L483.608 78.5078H477.471ZM485.213 53.393H489.651H489.84C498.621 53.393 505.702 46.3118 505.702 37.6255C505.702 28.8448 498.621 21.8579 489.84 21.8579H489.651H485.213V53.393ZM312.061 154.508C293.839 154.508 279.015 139.684 279.015 121.462C279.015 103.24 293.839 88.4163 312.061 88.4163C327.829 88.4163 341.519 99.6519 344.54 115.136L342.935 117.119H336.704L335.099 115.797C332.455 105.222 323.013 97.8579 312.061 97.8579C299.032 97.8579 288.457 108.433 288.457 121.462C288.457 134.492 299.032 145.066 312.061 145.066C323.013 145.066 332.455 137.702 335.099 127.127L336.704 125.805H342.935L344.54 127.788C341.519 143.272 327.829 154.508 312.061 154.508ZM353.734 154.508L352.129 152.808V90.1158L353.734 88.4163H359.777L361.476 90.1158V152.808L359.777 154.508H353.734ZM374.388 154.508L372.783 152.808V90.1158L374.388 88.4163H386.756C400.635 88.4163 411.965 99.7463 411.965 113.625C411.965 123.35 406.3 132.226 397.52 136.38L407.528 146.294V148.654L403.185 152.997H400.824L386.662 138.74H382.13V152.808L380.525 154.508H374.388ZM382.13 129.393H386.567H386.756C395.537 129.393 402.618 122.312 402.618 113.625C402.618 104.845 395.537 97.8579 386.756 97.8579H386.567H382.13V129.393ZM448.799 154.508C430.577 154.508 415.753 139.684 415.753 121.462C415.753 103.24 430.577 88.4163 448.799 88.4163C464.566 88.4163 478.257 99.6519 481.278 115.136L479.673 117.119H473.442L471.837 115.797C469.193 105.222 459.751 97.8579 448.799 97.8579C435.769 97.8579 425.195 108.433 425.195 121.462C425.195 134.492 435.769 145.066 448.799 145.066C459.751 145.066 469.193 137.702 471.837 127.127L473.442 125.805H479.673L481.278 127.788C478.257 143.272 464.566 154.508 448.799 154.508ZM490.472 154.508L488.867 152.808V90.1158L490.472 88.4163H496.609L498.214 90.1158V145.066H526.445L528.05 146.766V152.808L526.445 154.508H490.472ZM564.883 154.508C546.661 154.508 531.837 139.684 531.837 121.462C531.837 103.24 546.661 88.4163 564.883 88.4163C583.106 88.4163 597.929 103.24 597.929 121.462C597.929 122.501 597.929 123.539 597.835 124.578L596.135 126.088H541.751C543.828 137.041 553.553 145.066 564.883 145.066C573.475 145.066 581.406 140.44 585.56 132.886L587.071 132.037H593.775L595.285 134.397C590.092 146.577 578.196 154.508 564.883 154.508ZM541.751 116.647H588.015C585.844 105.789 576.213 97.8579 564.883 97.8579C553.648 97.8579 544.017 105.789 541.751 116.647Z"/>
</mask>
<path d="M284.397 78.5078L282.792 76.8083V14.1158L284.397 12.4163H290.44L292.139 14.1158V76.8083L290.44 78.5078H284.397ZM305.051 78.5078L303.446 76.8083V14.1158L305.145 12.4163H317.23L318.93 13.7381L329.41 69.1606H334.036V14.1158L335.642 12.5107H341.779L343.384 14.1158V76.8083L341.684 78.5078H323.084V78.319L321.385 77.0916L312.793 32.0549V76.8083L311.188 78.5078H305.051ZM356.316 78.5078L354.711 76.8083V14.1158L356.41 12.4163H368.496L370.195 13.7381L380.675 69.1606H385.302V14.1158L386.907 12.5107H393.044L394.649 14.1158V76.8083L392.949 78.5078H374.349V78.319L372.65 77.0916L364.058 32.0549V76.8083L362.453 78.5078H356.316ZM435.245 78.5078C417.023 78.5078 402.199 63.6844 402.199 45.4621C402.199 27.2397 417.023 12.4163 435.245 12.4163C453.467 12.4163 468.291 27.2397 468.291 45.4621C468.291 46.5006 468.291 47.5392 468.196 48.5778L466.497 50.0885H412.113C414.19 61.0408 423.915 69.0662 435.245 69.0662C443.837 69.0662 451.768 64.4398 455.922 56.8864L457.433 56.0367H464.136L465.647 58.3971C460.454 70.5768 448.558 78.5078 435.245 78.5078ZM412.113 40.6468H458.377C456.205 29.7889 446.575 21.8579 435.245 21.8579C424.009 21.8579 414.379 29.7889 412.113 40.6468ZM477.471 78.5078L475.866 76.8083V14.1158L477.471 12.4163H489.84C503.719 12.4163 515.049 23.7463 515.049 37.6255C515.049 47.3504 509.384 56.2255 500.603 60.3799L510.611 70.2936V72.654L506.268 76.9971H503.908L489.745 62.7403H485.213V76.8083L483.608 78.5078H477.471ZM485.213 53.393H489.651H489.84C498.621 53.393 505.702 46.3118 505.702 37.6255C505.702 28.8448 498.621 21.8579 489.84 21.8579H489.651H485.213V53.393ZM312.061 154.508C293.839 154.508 279.015 139.684 279.015 121.462C279.015 103.24 293.839 88.4163 312.061 88.4163C327.829 88.4163 341.519 99.6519 344.54 115.136L342.935 117.119H336.704L335.099 115.797C332.455 105.222 323.013 97.8579 312.061 97.8579C299.032 97.8579 288.457 108.433 288.457 121.462C288.457 134.492 299.032 145.066 312.061 145.066C323.013 145.066 332.455 137.702 335.099 127.127L336.704 125.805H342.935L344.54 127.788C341.519 143.272 327.829 154.508 312.061 154.508ZM353.734 154.508L352.129 152.808V90.1158L353.734 88.4163H359.777L361.476 90.1158V152.808L359.777 154.508H353.734ZM374.388 154.508L372.783 152.808V90.1158L374.388 88.4163H386.756C400.635 88.4163 411.965 99.7463 411.965 113.625C411.965 123.35 406.3 132.226 397.52 136.38L407.528 146.294V148.654L403.185 152.997H400.824L386.662 138.74H382.13V152.808L380.525 154.508H374.388ZM382.13 129.393H386.567H386.756C395.537 129.393 402.618 122.312 402.618 113.625C402.618 104.845 395.537 97.8579 386.756 97.8579H386.567H382.13V129.393ZM448.799 154.508C430.577 154.508 415.753 139.684 415.753 121.462C415.753 103.24 430.577 88.4163 448.799 88.4163C464.566 88.4163 478.257 99.6519 481.278 115.136L479.673 117.119H473.442L471.837 115.797C469.193 105.222 459.751 97.8579 448.799 97.8579C435.769 97.8579 425.195 108.433 425.195 121.462C425.195 134.492 435.769 145.066 448.799 145.066C459.751 145.066 469.193 137.702 471.837 127.127L473.442 125.805H479.673L481.278 127.788C478.257 143.272 464.566 154.508 448.799 154.508ZM490.472 154.508L488.867 152.808V90.1158L490.472 88.4163H496.609L498.214 90.1158V145.066H526.445L528.05 146.766V152.808L526.445 154.508H490.472ZM564.883 154.508C546.661 154.508 531.837 139.684 531.837 121.462C531.837 103.24 546.661 88.4163 564.883 88.4163C583.106 88.4163 597.929 103.24 597.929 121.462C597.929 122.501 597.929 123.539 597.835 124.578L596.135 126.088H541.751C543.828 137.041 553.553 145.066 564.883 145.066C573.475 145.066 581.406 140.44 585.56 132.886L587.071 132.037H593.775L595.285 134.397C590.092 146.577 578.196 154.508 564.883 154.508ZM541.751 116.647H588.015C585.844 105.789 576.213 97.8579 564.883 97.8579C553.648 97.8579 544.017 105.789 541.751 116.647Z" fill="black"/>
<path d="M284.397 78.5078L283.67 79.1944L283.966 79.5078H284.397V78.5078ZM282.792 76.8083H281.792V77.2059L282.065 77.4949L282.792 76.8083ZM282.792 14.1158L282.065 13.4292L281.792 13.7182V14.1158H282.792ZM284.397 12.4163V11.4163H283.966L283.67 11.7297L284.397 12.4163ZM290.44 12.4163L291.147 11.7092L290.854 11.4163H290.44V12.4163ZM292.139 14.1158H293.139V13.7016L292.846 13.4087L292.139 14.1158ZM292.139 76.8083L292.846 77.5154L293.139 77.2225V76.8083H292.139ZM290.44 78.5078V79.5078H290.854L291.147 79.2149L290.44 78.5078ZM284.397 78.5078L285.124 77.8212L283.519 76.1217L282.792 76.8083L282.065 77.4949L283.67 79.1944L284.397 78.5078ZM282.792 76.8083H283.792V14.1158H282.792H281.792V76.8083H282.792ZM282.792 14.1158L283.519 14.8024L285.124 13.1029L284.397 12.4163L283.67 11.7297L282.065 13.4292L282.792 14.1158ZM284.397 12.4163V13.4163H290.44V12.4163V11.4163H284.397V12.4163ZM290.44 12.4163L289.733 13.1234L291.432 14.8229L292.139 14.1158L292.846 13.4087L291.147 11.7092L290.44 12.4163ZM292.139 14.1158H291.139V76.8083H292.139H293.139V14.1158H292.139ZM292.139 76.8083L291.432 76.1012L289.733 77.8007L290.44 78.5078L291.147 79.2149L292.846 77.5154L292.139 76.8083ZM290.44 78.5078V77.5078H284.397V78.5078V79.5078H290.44V78.5078ZM305.051 78.5078L304.324 79.1944L304.62 79.5078H305.051V78.5078ZM303.446 76.8083H302.446V77.2059L302.719 77.4949L303.446 76.8083ZM303.446 14.1158L302.738 13.4087L302.446 13.7016V14.1158H303.446ZM305.145 12.4163V11.4163H304.731L304.438 11.7092L305.145 12.4163ZM317.23 12.4163L317.844 11.627L317.573 11.4163H317.23V12.4163ZM318.93 13.7381L319.912 13.5523L319.842 13.1809L319.544 12.9488L318.93 13.7381ZM329.41 69.1606L328.427 69.3464L328.581 70.1606H329.41V69.1606ZM334.036 69.1606V70.1606H335.036V69.1606H334.036ZM334.036 14.1158L333.329 13.4087L333.036 13.7016V14.1158H334.036ZM335.642 12.5107V11.5107H335.227L334.934 11.8036L335.642 12.5107ZM341.779 12.5107L342.486 11.8036L342.193 11.5107H341.779V12.5107ZM343.384 14.1158H344.384V13.7016L344.091 13.4087L343.384 14.1158ZM343.384 76.8083L344.091 77.5154L344.384 77.2225V76.8083H343.384ZM341.684 78.5078V79.5078H342.098L342.391 79.2149L341.684 78.5078ZM323.084 78.5078H322.084V79.5078H323.084V78.5078ZM323.084 78.319H324.084V77.8077L323.67 77.5083L323.084 78.319ZM321.385 77.0916L320.402 77.279L320.477 77.6695L320.799 77.9022L321.385 77.0916ZM312.793 32.0549L313.775 31.8675L311.793 32.0549H312.793ZM312.793 76.8083L313.52 77.4949L313.793 77.2059V76.8083H312.793ZM311.188 78.5078V79.5078H311.619L311.915 79.1944L311.188 78.5078ZM305.051 78.5078L305.778 77.8212L304.173 76.1217L303.446 76.8083L302.719 77.4949L304.324 79.1944L305.051 78.5078ZM303.446 76.8083H304.446V14.1158H303.446H302.446V76.8083H303.446ZM303.446 14.1158L304.153 14.8229L305.852 13.1234L305.145 12.4163L304.438 11.7092L302.738 13.4087L303.446 14.1158ZM305.145 12.4163V13.4163H317.23V12.4163V11.4163H305.145V12.4163ZM317.23 12.4163L316.616 13.2057L318.316 14.5275L318.93 13.7381L319.544 12.9488L317.844 11.627L317.23 12.4163ZM318.93 13.7381L317.947 13.9239L328.427 69.3464L329.41 69.1606L330.393 68.9748L319.912 13.5523L318.93 13.7381ZM329.41 69.1606V70.1606H334.036V69.1606V68.1606H329.41V69.1606ZM334.036 69.1606H335.036V14.1158H334.036H333.036V69.1606H334.036ZM334.036 14.1158L334.744 14.8229L336.349 13.2178L335.642 12.5107L334.934 11.8036L333.329 13.4087L334.036 14.1158ZM335.642 12.5107V13.5107H341.779V12.5107V11.5107H335.642V12.5107ZM341.779 12.5107L341.072 13.2178L342.677 14.8229L343.384 14.1158L344.091 13.4087L342.486 11.8036L341.779 12.5107ZM343.384 14.1158H342.384V76.8083H343.384H344.384V14.1158H343.384ZM343.384 76.8083L342.677 76.1012L340.977 77.8007L341.684 78.5078L342.391 79.2149L344.091 77.5154L343.384 76.8083ZM341.684 78.5078V77.5078H323.084V78.5078V79.5078H341.684V78.5078ZM323.084 78.5078H324.084V78.319H323.084H322.084V78.5078H323.084ZM323.084 78.319L323.67 77.5083L321.97 76.2809L321.385 77.0916L320.799 77.9022L322.499 79.1297L323.084 78.319ZM321.385 77.0916L322.367 76.9042L313.775 31.8675L312.793 32.0549L311.81 32.2423L320.402 77.279L321.385 77.0916ZM312.793 32.0549H311.793V76.8083H312.793H313.793V32.0549H312.793ZM312.793 76.8083L312.066 76.1217L310.461 77.8212L311.188 78.5078L311.915 79.1944L313.52 77.4949L312.793 76.8083ZM311.188 78.5078V77.5078H305.051V78.5078V79.5078H311.188V78.5078ZM356.316 78.5078L355.589 79.1944L355.885 79.5078H356.316V78.5078ZM354.711 76.8083H353.711V77.2059L353.984 77.4949L354.711 76.8083ZM354.711 14.1158L354.004 13.4087L353.711 13.7016V14.1158H354.711ZM356.41 12.4163V11.4163H355.996L355.703 11.7092L356.41 12.4163ZM368.496 12.4163L369.109 11.627L368.839 11.4163H368.496V12.4163ZM370.195 13.7381L371.178 13.5523L371.107 13.1809L370.809 12.9488L370.195 13.7381ZM380.675 69.1606L379.693 69.3464L379.847 70.1606H380.675V69.1606ZM385.302 69.1606V70.1606H386.302V69.1606H385.302ZM385.302 14.1158L384.595 13.4087L384.302 13.7016V14.1158H385.302ZM386.907 12.5107V11.5107H386.493L386.2 11.8036L386.907 12.5107ZM393.044 12.5107L393.751 11.8036L393.458 11.5107H393.044V12.5107ZM394.649 14.1158H395.649V13.7016L395.356 13.4087L394.649 14.1158ZM394.649 76.8083L395.356 77.5154L395.649 77.2225V76.8083H394.649ZM392.949 78.5078V79.5078H393.364L393.656 79.2149L392.949 78.5078ZM374.349 78.5078H373.349V79.5078H374.349V78.5078ZM374.349 78.319H375.349V77.8077L374.935 77.5083L374.349 78.319ZM372.65 77.0916L371.668 77.279L371.742 77.6695L372.064 77.9022L372.65 77.0916ZM364.058 32.0549L365.04 31.8675L363.058 32.0549H364.058ZM364.058 76.8083L364.785 77.4949L365.058 77.2059V76.8083H364.058ZM362.453 78.5078V79.5078H362.884L363.18 79.1944L362.453 78.5078ZM356.316 78.5078L357.043 77.8212L355.438 76.1217L354.711 76.8083L353.984 77.4949L355.589 79.1944L356.316 78.5078ZM354.711 76.8083H355.711V14.1158H354.711H353.711V76.8083H354.711ZM354.711 14.1158L355.418 14.8229L357.117 13.1234L356.41 12.4163L355.703 11.7092L354.004 13.4087L354.711 14.1158ZM356.41 12.4163V13.4163H368.496V12.4163V11.4163H356.41V12.4163ZM368.496 12.4163L367.882 13.2057L369.581 14.5275L370.195 13.7381L370.809 12.9488L369.109 11.627L368.496 12.4163ZM370.195 13.7381L369.212 13.9239L379.693 69.3464L380.675 69.1606L381.658 68.9748L371.178 13.5523L370.195 13.7381ZM380.675 69.1606V70.1606H385.302V69.1606V68.1606H380.675V69.1606ZM385.302 69.1606H386.302V14.1158H385.302H384.302V69.1606H385.302ZM385.302 14.1158L386.009 14.8229L387.614 13.2178L386.907 12.5107L386.2 11.8036L384.595 13.4087L385.302 14.1158ZM386.907 12.5107V13.5107H393.044V12.5107V11.5107H386.907V12.5107ZM393.044 12.5107L392.337 13.2178L393.942 14.8229L394.649 14.1158L395.356 13.4087L393.751 11.8036L393.044 12.5107ZM394.649 14.1158H393.649V76.8083H394.649H395.649V14.1158H394.649ZM394.649 76.8083L393.942 76.1012L392.242 77.8007L392.949 78.5078L393.656 79.2149L395.356 77.5154L394.649 76.8083ZM392.949 78.5078V77.5078H374.349V78.5078V79.5078H392.949V78.5078ZM374.349 78.5078H375.349V78.319H374.349H373.349V78.5078H374.349ZM374.349 78.319L374.935 77.5083L373.235 76.2809L372.65 77.0916L372.064 77.9022L373.764 79.1297L374.349 78.319ZM372.65 77.0916L373.632 76.9042L365.04 31.8675L364.058 32.0549L363.076 32.2423L371.668 77.279L372.65 77.0916ZM364.058 32.0549H363.058V76.8083H364.058H365.058V32.0549H364.058ZM364.058 76.8083L363.331 76.1217L361.726 77.8212L362.453 78.5078L363.18 79.1944L364.785 77.4949L364.058 76.8083ZM362.453 78.5078V77.5078H356.316V78.5078V79.5078H362.453V78.5078ZM468.196 48.5778L468.861 49.3252L469.156 49.0624L469.192 48.6683L468.196 48.5778ZM466.497 50.0885V51.0885H466.877L467.161 50.8359L466.497 50.0885ZM412.113 50.0885V49.0885H410.905L411.13 50.2748L412.113 50.0885ZM455.922 56.8864L455.432 56.0149L455.183 56.1547L455.046 56.4045L455.922 56.8864ZM457.433 56.0367V55.0367H457.171L456.943 55.1651L457.433 56.0367ZM464.136 56.0367L464.979 55.4976L464.684 55.0367H464.136V56.0367ZM465.647 58.3971L466.567 58.7893L466.774 58.3032L466.489 57.8581L465.647 58.3971ZM412.113 40.6468L411.134 40.4425L410.883 41.6468H412.113V40.6468ZM458.377 40.6468V41.6468H459.597L459.358 40.4507L458.377 40.6468ZM435.245 78.5078V77.5078C417.575 77.5078 403.199 63.1321 403.199 45.4621H402.199H401.199C401.199 64.2367 416.47 79.5078 435.245 79.5078V78.5078ZM402.199 45.4621H403.199C403.199 27.792 417.575 13.4163 435.245 13.4163V12.4163V11.4163C416.47 11.4163 401.199 26.6874 401.199 45.4621H402.199ZM435.245 12.4163V13.4163C452.915 13.4163 467.291 27.792 467.291 45.4621H468.291H469.291C469.291 26.6874 454.02 11.4163 435.245 11.4163V12.4163ZM468.291 45.4621H467.291C467.291 46.5081 467.29 47.5013 467.2 48.4873L468.196 48.5778L469.192 48.6683C469.291 47.5771 469.291 46.4932 469.291 45.4621H468.291ZM468.196 48.5778L467.532 47.8304L465.832 49.3411L466.497 50.0885L467.161 50.8359L468.861 49.3252L468.196 48.5778ZM466.497 50.0885V49.0885H412.113V50.0885V51.0885H466.497V50.0885ZM412.113 50.0885L411.13 50.2748C413.298 61.7055 423.441 70.0662 435.245 70.0662V69.0662V68.0662C424.389 68.0662 415.082 60.376 413.095 49.9021L412.113 50.0885ZM435.245 69.0662V70.0662C444.197 70.0662 452.466 65.2451 456.798 57.3684L455.922 56.8864L455.046 56.4045C451.07 63.6345 443.477 68.0662 435.245 68.0662V69.0662ZM455.922 56.8864L456.412 57.758L457.923 56.9083L457.433 56.0367L456.943 55.1651L455.432 56.0149L455.922 56.8864ZM457.433 56.0367V57.0367H464.136V56.0367V55.0367H457.433V56.0367ZM464.136 56.0367L463.294 56.5758L464.805 58.9362L465.647 58.3971L466.489 57.8581L464.979 55.4976L464.136 56.0367ZM465.647 58.3971L464.727 58.0049C459.69 69.8183 448.155 77.5078 435.245 77.5078V78.5078V79.5078C448.961 79.5078 461.218 71.3354 466.567 58.7893L465.647 58.3971ZM412.113 40.6468V41.6468H458.377V40.6468V39.6468H412.113V40.6468ZM458.377 40.6468L459.358 40.4507C457.092 29.1211 447.047 20.8579 435.245 20.8579V21.8579V22.8579C446.103 22.8579 455.319 30.4568 457.396 40.8429L458.377 40.6468ZM435.245 21.8579V20.8579C423.533 20.8579 413.496 29.1238 411.134 40.4425L412.113 40.6468L413.092 40.8511C415.262 30.454 424.486 22.8579 435.245 22.8579V21.8579ZM477.471 78.5078L476.744 79.1944L477.04 79.5078H477.471V78.5078ZM475.866 76.8083H474.866V77.2059L475.139 77.4949L475.866 76.8083ZM475.866 14.1158L475.139 13.4292L474.866 13.7182V14.1158H475.866ZM477.471 12.4163V11.4163H477.04L476.744 11.7297L477.471 12.4163ZM500.603 60.3799L500.176 59.4759L498.886 60.0862L499.9 61.0903L500.603 60.3799ZM510.611 70.2936H511.611V69.8766L511.315 69.5831L510.611 70.2936ZM510.611 72.654L511.319 73.3611L511.611 73.0682V72.654H510.611ZM506.268 76.9971V77.9971H506.682L506.975 77.7043L506.268 76.9971ZM503.908 76.9971L503.198 77.7019L503.492 77.9971H503.908V76.9971ZM489.745 62.7403L490.455 62.0355L490.162 61.7403H489.745V62.7403ZM485.213 62.7403V61.7403H484.213V62.7403H485.213ZM485.213 76.8083L485.94 77.4949L486.213 77.2059V76.8083H485.213ZM483.608 78.5078V79.5078H484.039L484.335 79.1944L483.608 78.5078ZM485.213 53.393H484.213V54.393H485.213V53.393ZM485.213 21.8579V20.8579H484.213V21.8579H485.213ZM477.471 78.5078L478.198 77.8212L476.593 76.1217L475.866 76.8083L475.139 77.4949L476.744 79.1944L477.471 78.5078ZM475.866 76.8083H476.866V14.1158H475.866H474.866V76.8083H475.866ZM475.866 14.1158L476.593 14.8024L478.198 13.1029L477.471 12.4163L476.744 11.7297L475.139 13.4292L475.866 14.1158ZM477.471 12.4163V13.4163H489.84V12.4163V11.4163H477.471V12.4163ZM489.84 12.4163V13.4163C503.167 13.4163 514.049 24.2986 514.049 37.6255H515.049H516.049C516.049 23.194 504.271 11.4163 489.84 11.4163V12.4163ZM515.049 37.6255H514.049C514.049 46.9608 508.61 55.4857 500.176 59.4759L500.603 60.3799L501.031 61.2838C510.158 56.9654 516.049 47.74 516.049 37.6255H515.049ZM500.603 60.3799L499.9 61.0903L509.908 71.004L510.611 70.2936L511.315 69.5831L501.307 59.6694L500.603 60.3799ZM510.611 70.2936H509.611V72.654H510.611H511.611V70.2936H510.611ZM510.611 72.654L509.904 71.9469L505.561 76.29L506.268 76.9971L506.975 77.7043L511.319 73.3611L510.611 72.654ZM506.268 76.9971V75.9971H503.908V76.9971V77.9971H506.268V76.9971ZM503.908 76.9971L504.617 76.2924L490.455 62.0355L489.745 62.7403L489.036 63.445L503.198 77.7019L503.908 76.9971ZM489.745 62.7403V61.7403H485.213V62.7403V63.7403H489.745V62.7403ZM485.213 62.7403H484.213V76.8083H485.213H486.213V62.7403H485.213ZM485.213 76.8083L484.486 76.1217L482.881 77.8212L483.608 78.5078L484.335 79.1944L485.94 77.4949L485.213 76.8083ZM483.608 78.5078V77.5078H477.471V78.5078V79.5078H483.608V78.5078ZM485.213 53.393V54.393H489.651V53.393V52.393H485.213V53.393ZM489.651 53.393V54.393H489.84V53.393V52.393H489.651V53.393ZM489.84 53.393V54.393C499.169 54.393 506.702 46.868 506.702 37.6255H505.702H504.702C504.702 45.7556 498.072 52.393 489.84 52.393V53.393ZM505.702 37.6255H506.702C506.702 28.2847 499.165 20.8579 489.84 20.8579V21.8579V22.8579C498.076 22.8579 504.702 29.4048 504.702 37.6255H505.702ZM489.84 21.8579V20.8579H489.651V21.8579V22.8579H489.84V21.8579ZM489.651 21.8579V20.8579H485.213V21.8579V22.8579H489.651V21.8579ZM485.213 21.8579H484.213V53.393H485.213H486.213V21.8579H485.213ZM344.54 115.136L345.318 115.765L345.611 115.403L345.522 114.945L344.54 115.136ZM342.935 117.119V118.119H343.412L343.712 117.748L342.935 117.119ZM336.704 117.119L336.068 117.891L336.345 118.119H336.704V117.119ZM335.099 115.797L334.129 116.04L334.208 116.359L334.463 116.569L335.099 115.797ZM335.099 127.127L334.463 126.355L334.208 126.565L334.129 126.885L335.099 127.127ZM336.704 125.805V124.805H336.345L336.068 125.033L336.704 125.805ZM342.935 125.805L343.712 125.176L343.412 124.805H342.935V125.805ZM344.54 127.788L345.522 127.979L345.611 127.521L345.318 127.159L344.54 127.788ZM312.061 154.508V153.508C294.391 153.508 280.015 139.132 280.015 121.462H279.015H278.015C278.015 140.237 293.286 155.508 312.061 155.508V154.508ZM279.015 121.462H280.015C280.015 103.792 294.391 89.4163 312.061 89.4163V88.4163V87.4163C293.286 87.4163 278.015 102.687 278.015 121.462H279.015ZM312.061 88.4163V89.4163C327.352 89.4163 340.629 100.315 343.559 115.328L344.54 115.136L345.522 114.945C342.409 98.9891 328.305 87.4163 312.061 87.4163V88.4163ZM344.54 115.136L343.763 114.507L342.158 116.49L342.935 117.119L343.712 117.748L345.318 115.765L344.54 115.136ZM342.935 117.119V116.119H336.704V117.119V118.119H342.935V117.119ZM336.704 117.119L337.339 116.347L335.734 115.025L335.099 115.797L334.463 116.569L336.068 117.891L336.704 117.119ZM335.099 115.797L336.069 115.555C333.313 104.533 323.47 96.8579 312.061 96.8579V97.8579V98.8579C322.556 98.8579 331.597 105.912 334.129 116.04L335.099 115.797ZM312.061 97.8579V96.8579C298.479 96.8579 287.457 107.88 287.457 121.462H288.457H289.457C289.457 108.985 299.584 98.8579 312.061 98.8579V97.8579ZM288.457 121.462H287.457C287.457 135.044 298.479 146.066 312.061 146.066V145.066V144.066C299.584 144.066 289.457 133.939 289.457 121.462H288.457ZM312.061 145.066V146.066C323.47 146.066 333.313 138.391 336.069 127.37L335.099 127.127L334.129 126.885C331.597 137.012 322.556 144.066 312.061 144.066V145.066ZM335.099 127.127L335.734 127.899L337.339 126.577L336.704 125.805L336.068 125.033L334.463 126.355L335.099 127.127ZM336.704 125.805V126.805H342.935V125.805V124.805H336.704V125.805ZM342.935 125.805L342.158 126.434L343.763 128.417L344.54 127.788L345.318 127.159L343.712 125.176L342.935 125.805ZM344.54 127.788L343.559 127.596C340.629 142.609 327.352 153.508 312.061 153.508V154.508V155.508C328.305 155.508 342.409 143.935 345.522 127.979L344.54 127.788ZM353.734 154.508L353.007 155.194L353.303 155.508H353.734V154.508ZM352.129 152.808H351.129V153.206L351.402 153.495L352.129 152.808ZM352.129 90.1158L351.402 89.4292L351.129 89.7182V90.1158H352.129ZM353.734 88.4163V87.4163H353.303L353.007 87.7297L353.734 88.4163ZM359.777 88.4163L360.484 87.7092L360.191 87.4163H359.777V88.4163ZM361.476 90.1158H362.476V89.7016L362.183 89.4087L361.476 90.1158ZM361.476 152.808L362.183 153.515L362.476 153.223V152.808H361.476ZM359.777 154.508V155.508H360.191L360.484 155.215L359.777 154.508ZM353.734 154.508L354.461 153.821L352.856 152.122L352.129 152.808L351.402 153.495L353.007 155.194L353.734 154.508ZM352.129 152.808H353.129V90.1158H352.129H351.129V152.808H352.129ZM352.129 90.1158L352.856 90.8024L354.461 89.1029L353.734 88.4163L353.007 87.7297L351.402 89.4292L352.129 90.1158ZM353.734 88.4163V89.4163H359.777V88.4163V87.4163H353.734V88.4163ZM359.777 88.4163L359.07 89.1234L360.769 90.8229L361.476 90.1158L362.183 89.4087L360.484 87.7092L359.777 88.4163ZM361.476 90.1158H360.476V152.808H361.476H362.476V90.1158H361.476ZM361.476 152.808L360.769 152.101L359.07 153.801L359.777 154.508L360.484 155.215L362.183 153.515L361.476 152.808ZM359.777 154.508V153.508H353.734V154.508V155.508H359.777V154.508ZM374.388 154.508L373.661 155.194L373.957 155.508H374.388V154.508ZM372.783 152.808H371.783V153.206L372.056 153.495L372.783 152.808ZM372.783 90.1158L372.056 89.4292L371.783 89.7182V90.1158H372.783ZM374.388 88.4163V87.4163H373.957L373.661 87.7297L374.388 88.4163ZM397.52 136.38L397.092 135.476L395.802 136.086L396.816 137.09L397.52 136.38ZM407.528 146.294H408.528V145.877L408.232 145.583L407.528 146.294ZM407.528 148.654L408.235 149.361L408.528 149.068V148.654H407.528ZM403.185 152.997V153.997H403.599L403.892 153.704L403.185 152.997ZM400.824 152.997L400.115 153.702L400.408 153.997H400.824V152.997ZM386.662 138.74L387.371 138.036L387.078 137.74H386.662V138.74ZM382.13 138.74V137.74H381.13V138.74H382.13ZM382.13 152.808L382.857 153.495L383.13 153.206V152.808H382.13ZM380.525 154.508V155.508H380.956L381.252 155.194L380.525 154.508ZM382.13 129.393H381.13V130.393H382.13V129.393ZM382.13 97.8579V96.8579H381.13V97.8579H382.13ZM374.388 154.508L375.115 153.821L373.51 152.122L372.783 152.808L372.056 153.495L373.661 155.194L374.388 154.508ZM372.783 152.808H373.783V90.1158H372.783H371.783V152.808H372.783ZM372.783 90.1158L373.51 90.8024L375.115 89.1029L374.388 88.4163L373.661 87.7297L372.056 89.4292L372.783 90.1158ZM374.388 88.4163V89.4163H386.756V88.4163V87.4163H374.388V88.4163ZM386.756 88.4163V89.4163C400.083 89.4163 410.965 100.299 410.965 113.625H411.965H412.965C412.965 99.194 401.188 87.4163 386.756 87.4163V88.4163ZM411.965 113.625H410.965C410.965 122.961 405.526 131.486 397.092 135.476L397.52 136.38L397.947 137.284C407.075 132.965 412.965 123.74 412.965 113.625H411.965ZM397.52 136.38L396.816 137.09L406.824 147.004L407.528 146.294L408.232 145.583L398.223 135.669L397.52 136.38ZM407.528 146.294H406.528V148.654H407.528H408.528V146.294H407.528ZM407.528 148.654L406.821 147.947L402.478 152.29L403.185 152.997L403.892 153.704L408.235 149.361L407.528 148.654ZM403.185 152.997V151.997H400.824V152.997V153.997H403.185V152.997ZM400.824 152.997L401.534 152.292L387.371 138.036L386.662 138.74L385.952 139.445L400.115 153.702L400.824 152.997ZM386.662 138.74V137.74H382.13V138.74V139.74H386.662V138.74ZM382.13 138.74H381.13V152.808H382.13H383.13V138.74H382.13ZM382.13 152.808L381.403 152.122L379.798 153.821L380.525 154.508L381.252 155.194L382.857 153.495L382.13 152.808ZM380.525 154.508V153.508H374.388V154.508V155.508H380.525V154.508ZM382.13 129.393V130.393H386.567V129.393V128.393H382.13V129.393ZM386.567 129.393V130.393H386.756V129.393V128.393H386.567V129.393ZM386.756 129.393V130.393C396.085 130.393 403.618 122.868 403.618 113.625H402.618H401.618C401.618 121.756 394.989 128.393 386.756 128.393V129.393ZM402.618 113.625H403.618C403.618 104.285 396.081 96.8579 386.756 96.8579V97.8579V98.8579C394.992 98.8579 401.618 105.405 401.618 113.625H402.618ZM386.756 97.8579V96.8579H386.567V97.8579V98.8579H386.756V97.8579ZM386.567 97.8579V96.8579H382.13V97.8579V98.8579H386.567V97.8579ZM382.13 97.8579H381.13V129.393H382.13H383.13V97.8579H382.13ZM481.278 115.136L482.055 115.765L482.349 115.403L482.26 114.945L481.278 115.136ZM479.673 117.119V118.119H480.15L480.45 117.748L479.673 117.119ZM473.442 117.119L472.806 117.891L473.083 118.119H473.442V117.119ZM471.837 115.797L470.866 116.04L470.946 116.359L471.201 116.569L471.837 115.797ZM471.837 127.127L471.201 126.355L470.946 126.565L470.866 126.885L471.837 127.127ZM473.442 125.805V124.805H473.083L472.806 125.033L473.442 125.805ZM479.673 125.805L480.45 125.176L480.15 124.805H479.673V125.805ZM481.278 127.788L482.26 127.979L482.349 127.521L482.055 127.159L481.278 127.788ZM448.799 154.508V153.508C431.129 153.508 416.753 139.132 416.753 121.462H415.753H414.753C414.753 140.237 430.024 155.508 448.799 155.508V154.508ZM415.753 121.462H416.753C416.753 103.792 431.129 89.4163 448.799 89.4163V88.4163V87.4163C430.024 87.4163 414.753 102.687 414.753 121.462H415.753ZM448.799 88.4163V89.4163C464.09 89.4163 477.367 100.315 480.297 115.328L481.278 115.136L482.26 114.945C479.146 98.9891 465.043 87.4163 448.799 87.4163V88.4163ZM481.278 115.136L480.501 114.507L478.896 116.49L479.673 117.119L480.45 117.748L482.055 115.765L481.278 115.136ZM479.673 117.119V116.119H473.442V117.119V118.119H479.673V117.119ZM473.442 117.119L474.077 116.347L472.472 115.025L471.837 115.797L471.201 116.569L472.806 117.891L473.442 117.119ZM471.837 115.797L472.807 115.555C470.051 104.533 460.208 96.8579 448.799 96.8579V97.8579V98.8579C459.294 98.8579 468.334 105.912 470.866 116.04L471.837 115.797ZM448.799 97.8579V96.8579C435.217 96.8579 424.195 107.88 424.195 121.462H425.195H426.195C426.195 108.985 436.322 98.8579 448.799 98.8579V97.8579ZM425.195 121.462H424.195C424.195 135.044 435.217 146.066 448.799 146.066V145.066V144.066C436.322 144.066 426.195 133.939 426.195 121.462H425.195ZM448.799 145.066V146.066C460.208 146.066 470.051 138.391 472.807 127.37L471.837 127.127L470.866 126.885C468.334 137.012 459.294 144.066 448.799 144.066V145.066ZM471.837 127.127L472.472 127.899L474.077 126.577L473.442 125.805L472.806 125.033L471.201 126.355L471.837 127.127ZM473.442 125.805V126.805H479.673V125.805V124.805H473.442V125.805ZM479.673 125.805L478.896 126.434L480.501 128.417L481.278 127.788L482.055 127.159L480.45 125.176L479.673 125.805ZM481.278 127.788L480.297 127.596C477.367 142.609 464.09 153.508 448.799 153.508V154.508V155.508C465.043 155.508 479.146 143.935 482.26 127.979L481.278 127.788ZM490.472 154.508L489.745 155.194L490.041 155.508H490.472V154.508ZM488.867 152.808H487.867V153.206L488.14 153.495L488.867 152.808ZM488.867 90.1158L488.14 89.4292L487.867 89.7182V90.1158H488.867ZM490.472 88.4163V87.4163H490.041L489.745 87.7297L490.472 88.4163ZM496.609 88.4163L497.336 87.7297L497.04 87.4163H496.609V88.4163ZM498.214 90.1158H499.214V89.7182L498.941 89.4292L498.214 90.1158ZM498.214 145.066H497.214V146.066H498.214V145.066ZM526.445 145.066L527.172 144.38L526.876 144.066H526.445V145.066ZM528.05 146.766H529.05V146.368L528.777 146.079L528.05 146.766ZM528.05 152.808L528.777 153.495L529.05 153.206V152.808H528.05ZM526.445 154.508V155.508H526.876L527.172 155.194L526.445 154.508ZM490.472 154.508L491.199 153.821L489.594 152.122L488.867 152.808L488.14 153.495L489.745 155.194L490.472 154.508ZM488.867 152.808H489.867V90.1158H488.867H487.867V152.808H488.867ZM488.867 90.1158L489.594 90.8024L491.199 89.1029L490.472 88.4163L489.745 87.7297L488.14 89.4292L488.867 90.1158ZM490.472 88.4163V89.4163H496.609V88.4163V87.4163H490.472V88.4163ZM496.609 88.4163L495.882 89.1029L497.487 90.8024L498.214 90.1158L498.941 89.4292L497.336 87.7297L496.609 88.4163ZM498.214 90.1158H497.214V145.066H498.214H499.214V90.1158H498.214ZM498.214 145.066V146.066H526.445V145.066V144.066H498.214V145.066ZM526.445 145.066L525.718 145.753L527.323 147.452L528.05 146.766L528.777 146.079L527.172 144.38L526.445 145.066ZM528.05 146.766H527.05V152.808H528.05H529.05V146.766H528.05ZM528.05 152.808L527.323 152.122L525.718 153.821L526.445 154.508L527.172 155.194L528.777 153.495L528.05 152.808ZM526.445 154.508V153.508H490.472V154.508V155.508H526.445V154.508ZM597.835 124.578L598.499 125.325L598.795 125.062L598.83 124.668L597.835 124.578ZM596.135 126.088V127.088H596.515L596.799 126.836L596.135 126.088ZM541.751 126.088V125.088H540.544L540.769 126.275L541.751 126.088ZM585.56 132.886L585.07 132.015L584.822 132.155L584.684 132.405L585.56 132.886ZM587.071 132.037V131.037H586.809L586.581 131.165L587.071 132.037ZM593.775 132.037L594.617 131.498L594.322 131.037H593.775V132.037ZM595.285 134.397L596.205 134.789L596.412 134.303L596.128 133.858L595.285 134.397ZM541.751 116.647L540.772 116.443L540.521 117.647H541.751V116.647ZM588.015 116.647V117.647H589.235L588.996 116.451L588.015 116.647ZM564.883 154.508V153.508C547.213 153.508 532.837 139.132 532.837 121.462H531.837H530.837C530.837 140.237 546.109 155.508 564.883 155.508V154.508ZM531.837 121.462H532.837C532.837 103.792 547.213 89.4163 564.883 89.4163V88.4163V87.4163C546.109 87.4163 530.837 102.687 530.837 121.462H531.837ZM564.883 88.4163V89.4163C582.553 89.4163 596.929 103.792 596.929 121.462H597.929H598.929C598.929 102.687 583.658 87.4163 564.883 87.4163V88.4163ZM597.929 121.462H596.929C596.929 122.508 596.928 123.501 596.839 124.487L597.835 124.578L598.83 124.668C598.93 123.577 598.929 122.493 598.929 121.462H597.929ZM597.835 124.578L597.17 123.83L595.471 125.341L596.135 126.088L596.799 126.836L598.499 125.325L597.835 124.578ZM596.135 126.088V125.088H541.751V126.088V127.088H596.135V126.088ZM541.751 126.088L540.769 126.275C542.937 137.706 553.079 146.066 564.883 146.066V145.066V144.066C554.027 144.066 544.72 136.376 542.734 125.902L541.751 126.088ZM564.883 145.066V146.066C573.835 146.066 582.104 141.245 586.437 133.368L585.56 132.886L584.684 132.405C580.708 139.634 573.115 144.066 564.883 144.066V145.066ZM585.56 132.886L586.051 133.758L587.561 132.908L587.071 132.037L586.581 131.165L585.07 132.015L585.56 132.886ZM587.071 132.037V133.037H593.775V132.037V131.037H587.071V132.037ZM593.775 132.037L592.932 132.576L594.443 134.936L595.285 134.397L596.128 133.858L594.617 131.498L593.775 132.037ZM595.285 134.397L594.365 134.005C589.329 145.818 577.793 153.508 564.883 153.508V154.508V155.508C578.599 155.508 590.856 147.335 596.205 134.789L595.285 134.397ZM541.751 116.647V117.647H588.015V116.647V115.647H541.751V116.647ZM588.015 116.647L588.996 116.451C586.73 105.121 576.685 96.8579 564.883 96.8579V97.8579V98.8579C575.741 98.8579 584.957 106.457 587.035 116.843L588.015 116.647ZM564.883 97.8579V96.8579C553.171 96.8579 543.134 105.124 540.772 116.443L541.751 116.647L542.73 116.851C544.9 106.454 554.124 98.8579 564.883 98.8579V97.8579Z" fill="black" mask="url(#path-4-outside-1_203_39)"/>
</svg>
