<svg width="565" height="305" viewBox="0 0 565 305" fill="none" xmlns="http://www.w3.org/2000/svg">
<path d="M492.605 0.340634C494.198 0.126437 495.806 0.0130297 497.413 0.000429939C520.022 -0.114984 514.242 23.0405 519.478 28.1393C523.223 29.6402 531.468 25.6612 536.18 24.9914C548.15 23.2889 546.603 33.4963 547.717 42.5702C552.187 49.1402 561.622 50.9762 563.759 58.2287C566.475 67.4502 549.209 71.4237 545.822 78.1691C543.609 82.5705 548.705 88.4748 549.451 91.9216C553.155 108.999 543.418 138.226 535.903 153.011C521.539 181.279 499.712 203.53 469.003 212.76C444.534 220.116 419.602 226.269 394.808 232.402L295.416 257.144L201.008 280.065C158.108 290.624 63.0783 317.567 24.1812 297.675C20.6966 295.558 17.4831 293.028 14.6119 290.13C-6.7423 268.317 -2.21191 220.514 12.3585 196.079C21.886 180.101 33.882 168.972 46.8527 155.995C57.0818 145.671 67.3728 135.408 77.7248 125.207C98.3451 104.846 118.892 84.3345 139.506 63.9958C148.293 55.3252 160.341 45.9822 172.798 44.6284C176.658 44.2091 183.088 44.4626 187.141 44.5453C192.435 41.0864 197.67 37.5363 202.842 33.8964C209.955 28.8177 220.368 20.5381 228.243 17.3756C237.917 13.4898 243.577 31.0106 250.817 34.2497C256.862 36.9536 264.959 29.2002 271.422 27.0764C282.76 23.3499 300.876 23.1775 311.539 28.7431C325.935 36.2566 329.308 48.1433 333.766 62.2117C341.058 57.6803 349.957 53.8545 357.707 49.9632C376.788 40.3823 395.841 30.5716 415.247 21.6696C424.526 17.4129 427.494 21.7119 432.544 29.1287C435.936 26.8546 449.065 20.4434 453.319 18.3961C465.47 12.5478 479.779 3.46035 492.605 0.340634Z" fill="#0D97FB"/>
<path d="M281.817 40.5808C290.601 40.2763 296.266 39.6877 303.967 44.8324C310.131 48.9103 314.422 55.2686 315.899 62.51C319.835 82.4786 306.065 94.2721 296.84 107.761C300.957 114.918 312.37 127.535 318.242 133.381C325.739 124.887 327.091 118.404 338.812 115.332C343.383 116.592 344.621 116.862 348.05 120.165C351.803 136.102 343.56 141.923 335.642 155.062C341.798 163.357 355.521 172.319 358.915 181.954C363.991 196.363 349.053 208.968 334.761 202.592C327.848 198.988 321.046 191.021 315.596 185.19C313.754 187.784 311.785 190.287 309.696 192.687C301.759 201.841 290.317 209.896 277.876 210.649C269.055 211.161 260.388 208.177 253.754 202.343C249.125 198.235 246.152 193.57 243.763 187.903C232.378 160.905 245.647 130.95 264.016 110.588C248.604 86.1008 250.281 50.3184 281.817 40.5808Z" fill="#FEFEFE"/>
<path d="M276.136 130.475C277.977 132.074 295.969 158.628 297.874 161.648C294.065 166.91 290.823 170.165 285.66 174.004C284.562 174.698 282.674 175.67 281.401 176.028C278.877 176.764 276.163 176.454 273.871 175.168C270.405 173.207 268.044 169.092 267.156 165.312C263.918 151.533 269.674 141.65 276.136 130.475Z" fill="#0D97FB"/>
<path d="M283.601 64.2495C298.362 64.0373 289.389 78.6783 284.371 84.4863L283.465 85.0991C282.313 84.7191 281.839 84.0231 281.086 83.0539C278.679 79.9564 277.678 75.9925 278.326 72.1233C278.926 68.7189 280.843 66.2221 283.601 64.2495Z" fill="#0D97FB"/>
<path d="M496.068 70.8896C500.876 71.318 504.55 72.0352 508.123 75.55C511.374 78.7524 512.216 83.6497 512.266 88.0319C512.528 110.475 489.35 159.67 473.172 176.037C468.787 180.472 462.502 185.82 455.854 185.674C443.995 185.414 437.549 170.883 433.401 161.796C432.172 159.097 431.133 155.711 429.027 153.609C421.049 150.862 412.894 189.608 397.639 193.674C376.03 199.434 367.415 167.873 362.418 153.286C361.244 149.526 360.226 145.719 359.365 141.875C356.903 130.56 354.113 115.41 360.526 105.022C364.824 98.0584 377.554 96.4274 383.988 101.178C388.518 104.523 390.062 110.328 391.855 115.42C395.091 126.777 395.984 138.766 397.941 150.352C404.23 138.388 420.555 103.77 435.503 101.042C451.898 98.0508 455.376 125.707 456.782 137.562C460.652 128.927 464.236 120.163 467.517 111.287C473.121 96.1321 477.738 73.8289 496.068 70.8896Z" fill="#FEFEFE"/>
<path d="M156.093 102.714C166.636 101.435 182.234 102.571 188.373 112.541C199.209 130.139 186.426 154.859 186.043 173.965C185.474 182.874 189.854 191.186 188.481 199.971C186.896 210.108 173.062 214.219 164.956 209.911C159.833 207.188 156.302 199.832 153.616 194.899C149.082 200.122 144.13 204.967 138.809 209.385C118.199 224.424 94.156 221.698 90.4058 193.38C85.5342 156.59 117.658 105.709 156.093 102.714Z" fill="#FEFEFE"/>
<path d="M150.122 137.303C157.883 136.953 159.027 141.241 156.498 147.927C151.782 160.4 142.784 173.084 130.603 179.148C114.38 183.157 130.307 144.56 150.122 137.303Z" fill="#0D97FB"/>
<path d="M217.747 128.762C223.228 128.325 225.903 130.754 229.355 134.437C230.528 145.228 227.825 193.054 222.904 200.091C220.199 203.96 216.885 204.967 212.482 205.709C207.126 204.133 203.694 202.94 201.776 197.06C198.595 187.309 199.037 176.697 200.414 166.654C201.743 156.967 202.419 146.645 206.446 137.628C208.698 132.571 212.957 130.397 217.747 128.762Z" fill="#FEFEFE"/>
<path d="M100.482 232.067C101.838 231.976 103.417 231.806 104.727 232.257C105.958 232.68 106.919 233.914 107.417 235.073C108.127 236.725 108.193 239.395 107.451 241.032C105.424 245.503 43.2357 266.442 34.1271 269.622C31.152 270.494 29.5196 271.396 26.7507 269.496C26.5244 268.654 26.3838 268.407 26.8368 267.596C30.4631 261.079 90.6367 235.372 100.482 232.067Z" fill="#FEFEFE"/>
<path d="M274.068 231.735C283.017 231.047 281.786 239.386 276.118 241.197C250.162 249.495 223.42 257.519 197.005 264.212C194.49 264.58 192.209 264.378 190.635 262.155L191.212 261.037C200.563 254.49 261.732 232.755 274.068 231.735Z" fill="#FEFEFE"/>
<path d="M419.68 37.3781C420.532 38.4017 422.275 43.1504 423.122 44.807C426.585 51.569 433.409 55.3147 439.608 59.4288C436.715 61.3535 434.321 62.4538 431.252 64.6955C422.81 70.8563 419.448 79.0916 414.02 87.6504C411.283 87.6388 411.152 79.2942 409.63 76.1493C405.639 67.8898 401.395 66.331 394.658 61.3031C410.291 52.3074 409.444 54.1852 419.68 37.3781Z" fill="#4CEE70"/>
<path d="M221.21 86.479C240.377 85.8032 245.508 111.967 221.663 118.822C202.783 121.77 197.459 90.8355 221.21 86.479Z" fill="#FEFEFE"/>
<path d="M228.554 28.7354C232.02 31.081 232.643 40.1997 244.726 47.6099C233.618 54.188 230.185 56.5286 224.067 68.2968C222.2 66.6382 220.548 59.484 219.187 56.8532C216.442 51.5491 212.328 48.7878 207.298 45.9548C217.575 42.7545 222.066 37.0079 228.554 28.7354Z" fill="#9867F9"/>
<path d="M535.972 37.7522C537.136 39.1921 537.681 41.2932 538.296 43.0637C540.74 50.103 543.794 52.8326 549.832 56.9704C540.538 61.4771 534.969 66.1864 529.924 75.1434C527.651 73.1536 527.465 65.7968 525.358 62.5582C522.944 58.8377 519.083 55.6943 515.812 52.7192C526.739 49.4302 528.7 46.3851 535.972 37.7522Z" fill="#FF4AE4"/>
<path d="M179.084 218.567C183.419 220.661 183.968 228.727 196.902 233.697C188.877 239.113 182.646 244.54 179.5 253.946C177.894 254.027 177.299 252.217 176.684 250.736C172.762 241.28 170.16 240.049 161.9 234.664C170.576 230.333 174.355 227.199 179.084 218.567Z" fill="#FF4AE4"/>
<path d="M359.01 75.8748C370.771 74.8527 366.475 84.0652 365.18 84.5692C353.339 89.1797 340.117 92.245 328.336 97.6962L327.686 98.0001C326.54 98.6289 326.267 98.791 325.49 98.9887C324.835 99.1553 324.133 99.1788 323.53 98.8723C321.289 97.7319 321.919 94.367 324.009 92.9695C333.257 86.7873 351.139 78.2015 359.01 75.8748Z" fill="#FEFEFE"/>
<path d="M81.6157 162.154C81.9858 161.972 82.4214 162.069 82.7026 162.371C82.8006 162.476 82.863 162.61 82.8658 162.754C82.8988 164.43 81.825 168.2 81.038 171.744C80.3876 174.673 78.7012 177.382 76.1874 179.019C68.0883 184.296 55.3177 193.313 49.9955 194.091C49.5832 193.156 48.8786 191.934 49.4663 190.957C54.0128 183.386 73.7887 165.992 81.6157 162.154Z" fill="#9867F9"/>
<path d="M305.409 210.499C306.864 210.986 311.521 218.444 314.834 220.329C317.701 221.96 318.107 222.074 321.48 223.272C313.839 228.462 311.594 231.132 308.149 239.438C306.01 238.541 302.551 232.218 299.177 230.184C296.252 228.419 295.218 228.06 291.922 226.714C299.465 221.845 301.561 218.478 305.409 210.499Z" fill="#9867F9"/>
<path d="M496.936 22.534C499.24 23.8796 500.928 30.4497 508.443 34.976C500.616 38.9077 499.532 40.4257 494.976 47.8344C489.881 44.3906 495.177 40.0482 483.203 34.3506C490.788 30.5106 492.521 29.6992 496.936 22.534Z" fill="#FF4AE4"/>
<path d="M197.469 52.868C200.141 54.9968 200.619 58.6307 207.251 63.2644C201.544 66.5217 199.253 69.2044 196.501 75.0044C195.254 74.323 192.285 67.512 190.557 65.8534C188.945 64.3071 188.339 63.9568 186.454 62.7523C191.636 60.1154 194.355 57.6967 197.469 52.868Z" fill="#FE7A51"/>
<path d="M227.426 215.71C231.166 214.885 234.882 217.195 235.797 220.914C236.712 224.634 234.493 228.403 230.797 229.408C228.326 230.081 225.684 229.36 223.895 227.526C222.107 225.693 221.453 223.034 222.186 220.58C222.919 218.126 224.925 216.262 227.426 215.71Z" fill="#4CEE70"/>
<path d="M71.4321 211.303C71.8918 211.396 72.3479 211.506 72.8005 211.63C79.7787 213.565 80.1451 221.569 72.7546 225.013C63.5547 223.631 63.1833 215.728 71.4321 211.303Z" fill="#4CEE70"/>
<path d="M381.657 69.0225C383.279 68.2176 385.21 68.3491 386.708 69.3677C388.206 70.3858 389.039 72.1321 388.888 73.9374C388.737 75.7422 387.624 77.3258 385.977 78.0797C383.485 79.2213 380.538 78.1523 379.358 75.6782C378.178 73.2041 379.202 70.2406 381.657 69.0225Z" fill="#9867F9"/>
<path d="M471.22 45.4216C472.616 45.0471 474.107 45.4523 475.12 46.4825C476.133 47.5127 476.516 49.009 476.118 50.3985C475.72 51.788 474.606 52.8565 473.2 53.1951C471.068 53.7092 468.916 52.4125 468.372 50.2856C467.833 48.1583 469.103 45.9906 471.22 45.4216Z" fill="#4CEE70"/>
</svg>
