<svg width="646" height="105" viewBox="0 0 646 105" fill="none" xmlns="http://www.w3.org/2000/svg">
<path d="M94.0278 100H0V0H94.0278V100ZM13.9389 91.4222H25.8833V88.2056H13.9389V91.4222ZM68.15 89.1278H59.5722V90.5056H68.15V91.4222H80.0944V88.2056H68.15V89.1278ZM13.9389 69.9833H80.0944V14.0889H13.9389V69.9833Z" fill="#707070"/>
<path d="M168.314 87.1V89H142.314V87.1C150.414 86.5 150.714 86.3 150.714 75.8V24.3C150.714 17.8 148.314 17.1 141.314 17.1V15.2C149.114 15.2 153.714 12.9 159.114 8.2L159.914 8.7V75.8C159.914 86.3 161.214 86.4 168.314 87.1ZM192.972 34C207.172 34 214.972 44.1 214.972 60.6C214.972 78.3 205.672 90 191.672 90C177.172 90 169.672 79.9 169.672 63.5C169.672 45.7 178.772 34 192.972 34ZM193.372 87.4C199.772 87.4 204.772 80.9 204.772 65.5C204.772 50.7 200.772 36.6 190.972 36.6C184.272 36.6 180.172 43.1 180.172 58.3C180.172 73.5 183.972 87.4 193.372 87.4ZM240.595 36.9C233.495 36.9 229.595 45.5 229.595 57.2C229.595 71.4 234.995 84.3 244.695 84.3C249.295 84.3 254.695 81.2 258.895 76.8L260.095 78.4C255.795 83.6 249.795 90 240.395 90C229.095 90 219.795 80.8 219.795 63.3C219.795 46.7 227.595 34 244.395 34C253.795 34 258.095 37.8 258.095 41.5C258.095 44.2 256.195 47.1 252.795 47.1C246.295 47.1 248.295 36.9 240.595 36.9ZM302.619 89H285.919V83.2C281.519 86.6 276.319 90 270.719 90C263.019 90 260.119 83.9 260.119 78.8C260.119 72.7 264.019 69.7 274.819 66.1L285.919 62.4V51.6C285.919 41.3 283.619 36.8 278.119 36.8C268.119 36.8 275.719 50.5 266.719 50.5C262.919 50.5 261.619 48.2 261.619 46.1C261.619 40.2 272.419 34 281.819 34C291.219 34 295.119 39.3 295.119 48.9V75.8C295.119 86.3 295.519 86.4 302.619 87.1V89ZM275.519 84.7C279.219 84.7 285.119 82.3 285.919 75.8V65.9L278.419 68.3C271.519 70.6 269.519 73.7 269.519 77.7C269.519 81.2 271.319 84.7 275.519 84.7ZM326.822 87.1V89H300.822V87.1C308.922 86.5 309.222 86.3 309.222 75.8V24.3C309.222 17.8 306.822 17.1 299.822 17.1V15.2C307.622 15.2 312.222 12.9 317.622 8.2L318.422 8.7V75.8C318.422 86.3 319.722 86.4 326.822 87.1ZM349.98 87.1V89H324.88V87.1C332.98 86.5 333.28 86.3 333.28 75.8V24.3C333.28 17.8 330.88 17.1 323.88 17.1V15.2C331.68 15.2 336.28 12.9 341.68 8.2L342.48 8.7V42.7C350.98 36.5 354.38 34 359.98 34C368.18 34 371.68 39.5 371.68 50.9V75.8C371.68 86.3 372.08 86.4 380.18 87.1V89H355.08V87.1C362.18 86.5 362.48 86.3 362.48 75.8V55.6C362.48 42.6 357.88 39.6 353.58 39.6C348.38 39.6 342.48 45 342.48 54.3V75.8C342.48 86.3 342.88 86.4 349.98 87.1ZM404.534 34C418.734 34 426.534 44.1 426.534 60.6C426.534 78.3 417.234 90 403.234 90C388.734 90 381.234 79.9 381.234 63.5C381.234 45.7 390.334 34 404.534 34ZM404.934 87.4C411.334 87.4 416.334 80.9 416.334 65.5C416.334 50.7 412.334 36.6 402.534 36.6C395.834 36.6 391.734 43.1 391.734 58.3C391.734 73.5 395.534 87.4 404.934 87.4ZM447.657 90C443.757 90 440.757 88.5 438.657 88.5C437.357 88.5 436.457 89.1 436.057 91H434.057L432.057 71.5L434.357 71.3C437.157 80.4 439.757 87.4 446.957 87.4C451.457 87.4 455.857 84.8 455.857 78.6C455.857 65 432.657 64.1 432.657 48.2C432.657 40.7 437.657 34 448.357 34C451.957 34 453.757 35.1 455.757 35.1C456.957 35.1 457.657 34.3 458.257 32H460.057L461.557 49.5L459.457 49.7C456.657 41.3 453.557 36.6 448.157 36.6C444.057 36.6 440.357 39.4 440.357 44.2C440.357 56 463.457 58.2 463.457 74.6C463.457 84.4 454.757 90 447.657 90ZM493.803 82.3L494.903 84.1C492.203 87.3 488.203 90 482.903 90C476.603 90 472.003 86.1 472.003 79.1V39.1L465.903 38.1V36C473.403 36 478.503 31.3 479.303 24H481.203V34.6L493.403 36V38.1L481.203 39.3V77.7C481.203 83.4 483.103 85.6 486.703 85.6C489.703 85.6 492.003 84.1 493.803 82.3ZM537.087 87.1V89H510.487V87.1C518.787 86.5 518.887 86.4 518.887 77.8V26.2C518.887 17.6 518.687 17.6 510.387 16.9V15H536.987V16.9C528.687 17.5 528.587 17.6 528.587 26.2V53.9H559.387V26.2C559.387 17.6 559.187 17.6 550.887 16.9V15H577.487V16.9C569.187 17.5 569.087 17.6 569.087 26.2V77.8C569.087 86.4 569.287 86.4 577.587 87.1V89H550.987V87.1C559.287 86.5 559.387 86.4 559.387 77.8V56.7H528.587V77.8C528.587 86.4 528.787 86.4 537.087 87.1ZM632.402 104.3C620.902 104.3 611.502 92.2 604.802 89.9C588.502 88.5 580.002 74 580.002 51C580.002 28.7 591.402 14 609.102 14C626.802 14 636.502 28.8 636.502 53.1C636.502 73.2 627.002 87.1 612.202 89.6C620.002 93.7 628.902 97.3 639.802 97.3C641.602 97.3 643.502 97.2 645.402 97V98.1C644.502 101.8 638.202 104.3 632.402 104.3ZM609.802 86.5C619.002 86.5 626.302 78.6 626.302 59.8C626.302 38.2 620.402 17.5 606.102 17.5C596.602 17.5 590.502 25.5 590.502 44C590.502 66.2 596.202 86.5 609.802 86.5Z" fill="#707070"/>
</svg>
