<svg width="1544" height="384" viewBox="0 0 386 96" xmlns="http://www.w3.org/2000/svg" fill="none">
<path d="M27 20.9396C27 12.1364 34.1364 5 42.9396 5C44.6298 5 46 6.37019 46 8.0604V77.5604C46 86.3636 38.8636 93.5 30.0604 93.5C28.3702 93.5 27 92.1298 27 90.4396V20.9396Z" fill="white"/>
<path d="M54 36.4396C54 27.6364 61.1364 20.5 69.9396 20.5C71.6298 20.5 73 21.8702 73 23.5604V62.0604C73 70.8636 65.8636 78 57.0604 78C55.3702 78 54 76.6298 54 74.9396V36.4396Z" fill="white"/>
<path d="M0 36.4396C0 27.6364 7.1364 20.5 15.9396 20.5C17.6298 20.5 19 21.8702 19 23.5604V62.0604C19 70.8636 11.8636 78 3.0604 78C1.37019 78 0 76.6298 0 74.9396V36.4396Z" fill="white"/>
<path d="M135.32 78H127L111.96 33.6V78H102.44V20.56H116.52L131.32 64.56L146.12 20.56H159.88V78H150.36V33.6L135.32 78Z" fill="white"/>
<path d="M206.561 57.04C206.561 70.08 198.161 78.88 186.321 78.88C174.481 78.88 166.081 70.08 166.081 57.04C166.081 44 174.481 35.2 186.321 35.2C198.161 35.2 206.561 44 206.561 57.04ZM175.761 57.04C175.761 65.6 179.841 70.8 186.321 70.8C192.801 70.8 196.881 65.6 196.881 57.04C196.881 48.48 192.801 43.28 186.321 43.28C179.841 43.28 175.761 48.48 175.761 57.04Z" fill="white"/>
<path d="M236.274 35.92V45.52C235.074 45.36 234.114 45.28 232.754 45.28C226.674 45.28 222.034 49.2 222.034 55.92V78H212.434V36H222.034V42.24C223.874 38.32 228.194 35.76 233.554 35.76C234.674 35.76 235.554 35.84 236.274 35.92Z" fill="white"/>
<path d="M262.982 78.88C257.542 78.88 253.542 76.72 250.902 73.6V92.4H241.303V36H250.902V40.48C253.542 37.36 257.542 35.2 262.982 35.2C274.742 35.2 281.462 45.12 281.462 57.04C281.462 68.96 274.742 78.88 262.982 78.88ZM250.663 55.84V58.32C250.663 66.08 255.143 70.48 261.062 70.48C268.023 70.48 271.783 65.04 271.783 57.04C271.783 49.04 268.023 43.6 261.062 43.6C255.143 43.6 250.663 47.92 250.663 55.84Z" fill="white"/>
<path d="M287.281 78V20.56H296.881V40.48C299.281 37.68 303.041 35.2 308.481 35.2C317.281 35.2 322.561 41.28 322.561 50.32V78H312.961V53.12C312.961 47.92 310.881 44.16 305.601 44.16C301.281 44.16 296.881 47.36 296.881 53.36V78H287.281Z" fill="white"/>
<path d="M330.599 30.4V20.56H340.519V30.4H330.599ZM340.359 36V78H330.759V36H340.359Z" fill="white"/>
<path d="M355.806 57.04C355.806 65.6 360.286 70.56 366.846 70.56C371.966 70.56 375.086 67.2 376.286 62.56L384.526 66.72C382.366 73.52 375.966 78.88 366.846 78.88C354.846 78.88 346.206 70 346.206 57.04C346.206 44.08 354.846 35.2 366.846 35.2C375.886 35.2 382.126 40.32 384.366 47.04L376.286 51.44C375.086 46.88 371.966 43.44 366.846 43.44C360.286 43.44 355.806 48.48 355.806 57.04Z" fill="white"/>
</svg>